<?xml version="1.0" encoding="UTF-8" standalone="no"?>
<!-- Created with Inkscape (http://www.inkscape.org/) -->

<svg
   width="460"
   height="240"
   viewBox="0 0 121.70833 63.499999"
   version="1.1"
   id="svg269"
   inkscape:version="1.2.2 (b0a8486541, 2022-12-01)"
   sodipodi:docname="background.svg"
   xml:space="preserve"
   inkscape:export-filename="background.png"
   inkscape:export-xdpi="400"
   inkscape:export-ydpi="400"
   xmlns:inkscape="http://www.inkscape.org/namespaces/inkscape"
   xmlns:sodipodi="http://sodipodi.sourceforge.net/DTD/sodipodi-0.dtd"
   xmlns:xlink="http://www.w3.org/1999/xlink"
   xmlns="http://www.w3.org/2000/svg"
   xmlns:svg="http://www.w3.org/2000/svg"><sodipodi:namedview
     id="namedview271"
     pagecolor="#ffffff"
     bordercolor="#000000"
     borderopacity="0.25"
     inkscape:showpageshadow="2"
     inkscape:pageopacity="0.0"
     inkscape:pagecheckerboard="0"
     inkscape:deskcolor="#d1d1d1"
     inkscape:document-units="px"
     showgrid="false"
     inkscape:zoom="96.40917"
     inkscape:cx="433.30422"
     inkscape:cy="173.12669"
     inkscape:window-width="1366"
     inkscape:window-height="699"
     inkscape:window-x="0"
     inkscape:window-y="0"
     inkscape:window-maximized="1"
     inkscape:current-layer="layer1"
     showguides="false" /><defs
     id="defs266"><linearGradient
       inkscape:collect="always"
       id="linearGradient1369"><stop
         style="stop-color:#bf84c4;stop-opacity:1;"
         offset="0.76435781"
         id="stop1365" /><stop
         style="stop-color:#654464;stop-opacity:1;"
         offset="0.99731326"
         id="stop1367" /></linearGradient><linearGradient
       inkscape:collect="always"
       id="linearGradient9302"><stop
         style="stop-color:#e3ae29;stop-opacity:1;"
         offset="0"
         id="stop9298" /><stop
         style="stop-color:#e3ae29;stop-opacity:1;"
         offset="1"
         id="stop9306" /></linearGradient><linearGradient
       inkscape:collect="always"
       id="linearGradient9265"><stop
         style="stop-color:#354444;stop-opacity:1;"
         offset="0"
         id="stop9261" /><stop
         style="stop-color:#85abab;stop-opacity:1;"
         offset="0.60410631"
         id="stop9273" /><stop
         style="stop-color:#baefef;stop-opacity:1;"
         offset="1"
         id="stop9263" /></linearGradient><mask
       maskUnits="userSpaceOnUse"
       id="mask7539"><rect
         style="opacity:1;fill:#ffffff;fill-opacity:1;fill-rule:nonzero;stroke:#6b6e73;stroke-width:0;stroke-linecap:butt;stroke-linejoin:miter;stroke-miterlimit:0;stroke-dasharray:none;stroke-dashoffset:0;stroke-opacity:1;paint-order:normal"
         id="rect7541"
         width="22.162012"
         height="91.012726"
         x="41.922482"
         y="136.7892" /></mask><linearGradient
       inkscape:collect="always"
       xlink:href="#linearGradient9265"
       id="linearGradient9267"
       x1="-133.18961"
       y1="-37.041668"
       x2="0.89793718"
       y2="-37.041668"
       gradientUnits="userSpaceOnUse"
       gradientTransform="translate(-2.9104146,-86.974528)" /><linearGradient
       inkscape:collect="always"
       xlink:href="#linearGradient9302"
       id="linearGradient9312"
       x1="-133.18961"
       y1="-37.041668"
       x2="0.89793718"
       y2="-37.041668"
       gradientUnits="userSpaceOnUse"
       gradientTransform="translate(-2.9104146,-86.974528)" /><radialGradient
       inkscape:collect="always"
       xlink:href="#linearGradient1369"
       id="radialGradient1371"
       cx="78.182182"
       cy="5.29039"
       fx="78.182182"
       fy="5.29039"
       r="1.819307"
       gradientUnits="userSpaceOnUse"
       gradientTransform="matrix(0.9999989,0,0,1,26.573397,44.467125)" /></defs><g
     inkscape:label="Layer 1"
     inkscape:groupmode="layer"
     id="layer1"><rect
       style="fill:#eeccd3;fill-opacity:1;fill-rule:nonzero;stroke:#b5fcff;stroke-width:0;stroke-linecap:butt;stroke-linejoin:miter;stroke-miterlimit:0;paint-order:normal"
       id="rect1722-5-9-6-9"
       width="132.29167"
       height="74.083336"
       x="-127.52923"
       y="-64.029167"
       ry="0"
       transform="scale(-1)" /><path
       id="path1151"
       style="opacity:0.9598;fill:#8d0e41;fill-opacity:1;stroke:#573b54;stroke-width:0;stroke-linecap:round;stroke-linejoin:round"
       inkscape:transform-center-x="2.0140647"
       inkscape:transform-center-y="8.3878614"
       d="m 122.007,58.081742 c 5.44119,-7.615826 0.75423,-28.967162 4.25798,-61.3703511 L -9.3658881,-10.235375 C -3.1154961,-1.26639 13.733859,12.921994 47.457798,36.370614 88.824093,65.133048 108.86007,76.483012 122.007,58.081742 Z"
       sodipodi:nodetypes="sccss" /><rect
       style="opacity:0.55912;fill:url(#linearGradient9312);fill-opacity:1;fill-rule:nonzero;stroke:url(#linearGradient9267);stroke-width:0;stroke-linecap:butt;stroke-linejoin:miter;stroke-miterlimit:0;stroke-dasharray:none;stroke-opacity:1;paint-order:normal"
       id="rect1722-5-9-6-0"
       width="130.175"
       height="71.966667"
       x="-134.14375"
       y="-159.99951"
       ry="1.390203"
       transform="scale(-1)" /><text
       xml:space="preserve"
       style="font-style:italic;font-variant:normal;font-weight:900;font-stretch:normal;font-size:4.23333px;font-family:'Argentum Sans';-inkscape-font-specification:'Argentum Sans Heavy Italic';text-align:center;text-anchor:middle;fill:#ddbdc3;fill-opacity:1;stroke:#080a0b;stroke-width:0.1;stroke-dasharray:none;stroke-dashoffset:0;stroke-opacity:0.4378331"
       x="13.526339"
       y="5.8423414"
       id="text2090-3-22"><tspan
         sodipodi:role="line"
         id="tspan2088-5-8"
         style="font-style:italic;font-variant:normal;font-weight:900;font-stretch:normal;font-size:4.23333px;font-family:'Argentum Sans';-inkscape-font-specification:'Argentum Sans Heavy Italic';fill:#ddbdc3;fill-opacity:1;stroke:#080a0b;stroke-width:0.1;stroke-dasharray:none;stroke-dashoffset:0;stroke-opacity:0.4378331"
         x="13.526339"
         y="5.8423414">Canif</tspan></text><rect
       style="fill:#363636;fill-opacity:1;stroke:#bec3cb;stroke-width:0.1;stroke-linejoin:bevel;stroke-dasharray:none;stroke-opacity:1"
       id="rect1722-5-6"
       width="105.05026"
       height="43.920834"
       x="2.4312501"
       y="8.2520905"
       ry="0.61655205"
       rx="0" /><rect
       style="fill:#e2cac4;fill-opacity:1;stroke:#b5fcff;stroke-width:0"
       id="rect1722-5-6-1-2-0"
       width="4.2283692"
       height="22.026735"
       x="-51.620041"
       y="4.0801234"
       ry="1.3949453"
       transform="rotate(-90)" /><text
       xml:space="preserve"
       style="font-style:italic;font-variant:normal;font-weight:bold;font-stretch:normal;font-size:3.175px;font-family:Arial;-inkscape-font-specification:'Arial Bold Italic';text-align:center;text-anchor:middle;fill:#a3c2ff;fill-opacity:1;stroke:#080a0b;stroke-width:0;stroke-dasharray:none;stroke-dashoffset:0;stroke-opacity:1"
       x="11.042816"
       y="50.570724"
       id="text2090-3-2-9"><tspan
         sodipodi:role="line"
         id="tspan2088-5-9-9"
         style="font-style:normal;font-variant:normal;font-weight:300;font-stretch:normal;font-size:3.175px;font-family:'Argentum Sans';-inkscape-font-specification:'Argentum Sans Light';fill:#404040;stroke:#080a0b;stroke-width:0;stroke-dasharray:none;stroke-dashoffset:0;stroke-opacity:1"
         x="11.519065"
         y="50.570724">Clipped: </tspan></text><text
       xml:space="preserve"
       style="font-style:italic;font-weight:600;font-size:3.175px;font-family:'VictorMono Nerd Font';-inkscape-font-specification:'VictorMono Nerd Font Semi-Bold Italic';text-align:center;text-anchor:middle;fill:#ddbdc3;fill-opacity:1;stroke:#080a0b;stroke-width:0.0529167;stroke-dasharray:none;stroke-dashoffset:0;stroke-opacity:0.442481"
       x="114.66477"
       y="50.172909"
       id="text2090-3-2-2-6"><tspan
         sodipodi:role="line"
         style="font-style:italic;font-variant:normal;font-weight:bold;font-stretch:normal;font-size:3.175px;font-family:'Argentum Sans';-inkscape-font-specification:'Argentum Sans Bold Italic';fill:#ddbdc3;fill-opacity:1;stroke:#080a0b;stroke-width:0.0529167;stroke-dasharray:none;stroke-dashoffset:0;stroke-opacity:0.442481"
         x="114.66477"
         y="50.172909"
         id="tspan2550-1">Clip</tspan></text><text
       xml:space="preserve"
       style="font-style:italic;font-weight:600;font-size:4.23333px;font-family:'VictorMono Nerd Font';-inkscape-font-specification:'VictorMono Nerd Font Semi-Bold Italic';text-align:center;text-anchor:middle;fill:#ff6600;fill-opacity:1;stroke:#080a0b;stroke-width:0.1;stroke-dasharray:0.025, 0.025;stroke-dashoffset:0;stroke-opacity:1"
       x="16.99947"
       y="42.221672"
       id="text2412"><tspan
         sodipodi:role="line"
         id="tspan2410"
         style="stroke-width:0.1"
         x="16.99947"
         y="42.221672" /></text><g
       aria-label="Clipping"
       id="text2090-3"
       style="font-style:italic;font-weight:600;font-size:3.175px;font-family:'VictorMono Nerd Font';-inkscape-font-specification:'VictorMono Nerd Font Semi-Bold Italic';text-align:center;text-anchor:middle;fill:#bfbfbf;stroke:#080a0b;stroke-width:0"
       transform="matrix(0.9999989,0,0,1,26.573397,44.467125)"><path
         d="m 65.37049,5.3151947 0.300756,0.075964 q -0.09457,0.37052 -0.341064,0.5658569 -0.244946,0.1937866 -0.599963,0.1937866 -0.36742,0 -0.598414,-0.1488281 -0.229443,-0.1503784 -0.350366,-0.434082 -0.119372,-0.2837036 -0.119372,-0.6092652 0,-0.355017 0.134875,-0.6185668 0.136426,-0.2651001 0.386023,-0.4015259 0.251148,-0.1379761 0.551904,-0.1379761 0.341065,0 0.573609,0.1736328 0.232544,0.1736328 0.324011,0.4883423 l -0.296106,0.069763 Q 65.257318,4.2842499 65.10694,4.1710785 64.956561,4.0579071 64.728668,4.0579071 q -0.261999,0 -0.438733,0.1255738 -0.175183,0.1255737 -0.246496,0.3379638 -0.07131,0.2108399 -0.07131,0.4356323 0,0.2899048 0.08372,0.5069458 0.08527,0.2154908 0.26355,0.322461 0.178284,0.1069702 0.386023,0.1069702 0.252698,0 0.427881,-0.1457276 0.175183,-0.1457275 0.237195,-0.4325317 z"
         style="font-style:normal;font-weight:normal;font-family:Arial;-inkscape-font-specification:Arial;fill:#bfbfbf"
         id="path1296" /><path
         d="M 65.999908,6.1120453 V 3.8393158 h 0.279053 v 2.2727295 z"
         style="font-style:normal;font-weight:normal;font-family:Arial;-inkscape-font-specification:Arial;fill:#bfbfbf"
         id="path1298" /><path
         d="M 66.713043,4.1602265 V 3.8393158 h 0.279053 v 0.3209107 z m 0,1.9518188 V 4.4656342 h 0.279053 v 1.6464111 z"
         style="font-style:normal;font-weight:normal;font-family:Arial;-inkscape-font-specification:Arial;fill:#bfbfbf"
         id="path1300" /><path
         d="M 67.416876,6.7430145 V 4.4656342 h 0.254248 v 0.2139404 q 0.08992,-0.1255737 0.203089,-0.1875854 0.113171,-0.063562 0.274401,-0.063562 0.21084,0 0.372071,0.1085206 0.16123,0.1085205 0.243396,0.306958 0.08216,0.1968872 0.08216,0.4325317 0,0.2526977 -0.09147,0.4557861 -0.08992,0.2015381 -0.26355,0.3100586 -0.172082,0.1069702 -0.362768,0.1069702 -0.139527,0 -0.251148,-0.058911 -0.110071,-0.058911 -0.181384,-0.1488281 v 0.8015014 z m 0.252698,-1.444873 q 0,0.31781 0.128674,0.4697388 0.128675,0.1519287 0.311609,0.1519287 0.186035,0 0.31781,-0.1565796 0.133325,-0.1581299 0.133325,-0.4883423 0,-0.3147095 -0.130224,-0.4712891 -0.128675,-0.1565795 -0.308509,-0.1565795 -0.178283,0 -0.316259,0.1674316 -0.136426,0.1658813 -0.136426,0.4836914 z"
         style="font-style:normal;font-weight:normal;font-family:Arial;-inkscape-font-specification:Arial;fill:#bfbfbf"
         id="path1302" /><path
         d="M 69.18266,6.7430145 V 4.4656342 h 0.254248 v 0.2139404 q 0.08992,-0.1255737 0.203088,-0.1875854 0.113172,-0.063562 0.274402,-0.063562 0.21084,0 0.37207,0.1085206 0.161231,0.1085205 0.243396,0.306958 0.08217,0.1968872 0.08217,0.4325317 0,0.2526977 -0.09147,0.4557861 -0.08992,0.2015381 -0.26355,0.3100586 -0.172083,0.1069702 -0.362769,0.1069702 -0.139526,0 -0.251147,-0.058911 -0.110071,-0.058911 -0.181385,-0.1488281 v 0.8015014 z m 0.252697,-1.444873 q 0,0.31781 0.128675,0.4697388 0.128674,0.1519287 0.311609,0.1519287 0.186035,0 0.31781,-0.1565796 0.133325,-0.1581299 0.133325,-0.4883423 0,-0.3147095 -0.130225,-0.4712891 -0.128674,-0.1565795 -0.308508,-0.1565795 -0.178284,0 -0.31626,0.1674316 -0.136426,0.1658813 -0.136426,0.4836914 z"
         style="font-style:normal;font-weight:normal;font-family:Arial;-inkscape-font-specification:Arial;fill:#bfbfbf"
         id="path1304" /><path
         d="M 70.949994,4.1602265 V 3.8393158 h 0.279053 v 0.3209107 z m 0,1.9518188 V 4.4656342 h 0.279053 v 1.6464111 z"
         style="font-style:normal;font-weight:normal;font-family:Arial;-inkscape-font-specification:Arial;fill:#bfbfbf"
         id="path1306" /><path
         d="M 71.653827,6.1120453 V 4.4656342 h 0.251147 v 0.2340942 q 0.181385,-0.2713013 0.523999,-0.2713013 0.148828,0 0.272852,0.05426 0.125574,0.05271 0.187585,0.1395264 0.06201,0.086816 0.08682,0.2061889 0.0155,0.077515 0.0155,0.2713013 V 6.1120453 H 72.712677 V 5.110556 q 0,-0.1705322 -0.03256,-0.254248 -0.03256,-0.085266 -0.116272,-0.1348755 -0.08217,-0.05116 -0.193787,-0.05116 -0.178284,0 -0.308508,0.1131714 -0.128674,0.1131714 -0.128674,0.4294312 V 6.112045 Z"
         style="font-style:normal;font-weight:normal;font-family:Arial;-inkscape-font-specification:Arial;fill:#bfbfbf"
         id="path1308" /><path
         d="m 73.36845,6.2484711 0.271302,0.040308 q 0.01705,0.1255737 0.09457,0.1829346 0.103869,0.077515 0.283703,0.077515 0.193787,0 0.299207,-0.077515 0.10542,-0.077515 0.142627,-0.2170411 0.0217,-0.085266 0.02015,-0.3581176 -0.182934,0.2154907 -0.455786,0.2154907 -0.339514,0 -0.525549,-0.2449463 -0.186035,-0.2449463 -0.186035,-0.587561 0,-0.2356446 0.08527,-0.434082 0.08527,-0.1999878 0.246497,-0.3085083 0.16278,-0.1085206 0.381372,-0.1085206 0.291455,0 0.48059,0.2356446 V 4.4656342 h 0.257349 v 1.4231689 q 0,0.3844727 -0.07906,0.5441528 -0.07751,0.1612305 -0.248047,0.2542481 -0.168982,0.093017 -0.417029,0.093017 -0.294555,0 -0.475939,-0.1333251 Q 73.362249,6.5151215 73.36845,6.2484711 Z m 0.230994,-0.9890869 q 0,0.3240112 0.128674,0.4728393 0.128675,0.1488281 0.322461,0.1488281 0.192237,0 0.322461,-0.1472778 0.130225,-0.1488281 0.130225,-0.4650879 0,-0.3023071 -0.134876,-0.4557861 -0.133325,-0.153479 -0.322461,-0.153479 -0.186035,0 -0.316259,0.1519287 -0.130225,0.1503784 -0.130225,0.4480347 z"
         style="font-style:normal;font-weight:normal;font-family:Arial;-inkscape-font-specification:Arial;fill:#bfbfbf"
         id="path1310" /></g><path
       id="path539"
       style="fill:#eed0c3;stroke:url(#radialGradient1371);stroke-width:0.397847;stroke-dasharray:none;stroke-opacity:1"
       d="m 106.37586,49.757515 a 1.6203814,1.6203832 0 0 1 -1.62037,1.620383 1.6203814,1.6203832 0 0 1 -1.62039,-1.620383 1.6203814,1.6203832 0 0 1 1.62039,-1.620383 1.6203814,1.6203832 0 0 1 1.62037,1.620383 z" /><text
       xml:space="preserve"
       style="font-style:italic;font-weight:600;font-size:3.175px;font-family:'VictorMono Nerd Font';-inkscape-font-specification:'VictorMono Nerd Font Semi-Bold Italic';text-align:center;text-anchor:middle;fill:#a3c2ff;fill-opacity:1;stroke:#080a0b;stroke-width:0;stroke-dasharray:none;stroke-dashoffset:0;stroke-opacity:1"
       x="28.845139"
       y="58.772503"
       id="text2090-3-2-2-6-2"><tspan
         sodipodi:role="line"
         style="font-style:normal;font-variant:normal;font-weight:300;font-stretch:normal;font-size:3.175px;font-family:'Argentum Sans';-inkscape-font-specification:'Argentum Sans Light';fill:#404040;stroke:#080a0b;stroke-width:0;stroke-dasharray:none;stroke-dashoffset:0;stroke-opacity:1"
         x="28.845139"
         y="58.772503"
         id="tspan2550-1-0">Output</tspan></text><text
       xml:space="preserve"
       style="font-style:italic;font-weight:600;font-size:3.175px;font-family:'VictorMono Nerd Font';-inkscape-font-specification:'VictorMono Nerd Font Semi-Bold Italic';text-align:center;text-anchor:middle;fill:#a3c2ff;fill-opacity:1;stroke:#080a0b;stroke-width:0;stroke-dasharray:none;stroke-dashoffset:0;stroke-opacity:1"
       x="49.965385"
       y="59.120167"
       id="text2603"><tspan
         sodipodi:role="line"
         style="font-style:normal;font-variant:normal;font-weight:300;font-stretch:normal;font-size:3.175px;font-family:'Argentum Sans';-inkscape-font-specification:'Argentum Sans Light';fill:#404040;stroke:#080a0b;stroke-width:0;stroke-dasharray:none;stroke-dashoffset:0;stroke-opacity:1"
         x="49.965385"
         y="59.120167"
         id="tspan2601">Mix</tspan></text><path
       id="path1089"
       style="opacity:1;fill:#e3ae29;fill-opacity:1;stroke:#573b54;stroke-width:0;stroke-linecap:round;stroke-linejoin:round"
       inkscape:transform-center-x="6.5294978"
       inkscape:transform-center-y="1.3848659"
       d="m -23.020463,76.903464 -28.28406,-53.846323 c -35.599246,18.536715 -35.599036,18.536833 -1.746147,40.098326 17.171678,10.93694 25.632859,16.325721 30.030207,13.747997 z" /><circle
       id="path1145"
       style="fill:#573b54;stroke:none;stroke-width:0.264583"
       cx="-51.638565"
       cy="23.05714"
       r="0" /><path
       style="opacity:1;fill:#e3ae29;fill-opacity:1;stroke:#573b54;stroke-width:0;stroke-linecap:round;stroke-linejoin:round"
       d="m -51.638565,23.057141 28.618102,54.482881"
       id="path1147" /><rect
       style="fill:#242424;fill-opacity:1;stroke:#b5fcff;stroke-width:0;stroke-linecap:round;stroke-linejoin:miter"
       id="rect1722-5-6-1-2"
       width="0.92602044"
       height="28.760702"
       x="-115.09374"
       y="17.105064"
       ry="0"
       transform="scale(-1,1)" /><ellipse
       style="fill:#ddbdc3;fill-opacity:1;stroke:#878787;stroke-width:0;stroke-linecap:round;stroke-linejoin:miter;stroke-dasharray:none;stroke-dashoffset:0;stroke-opacity:1"
       id="path47652"
       cx="114.63072"
       cy="45.865768"
       rx="0.46302029"
       ry="0.43631482" /><ellipse
       style="fill:#242424;fill-opacity:1;stroke:#878787;stroke-width:0;stroke-linecap:round;stroke-linejoin:miter;stroke-dasharray:none;stroke-dashoffset:0;stroke-opacity:1"
       id="path47652-9"
       cx="114.63072"
       cy="17.105064"
       rx="0.46302029"
       ry="0.43631482" /></g></svg>
